<svg width="64" height="64" viewBox="0 0 64 64" fill="none" xmlns="http://www.w3.org/2000/svg">
<circle cx="32" cy="32" r="24" fill="#1C0BE0"/>
<circle cx="32" cy="32" r="28" stroke="#4F68FF" stroke-opacity="0.1" stroke-width="8"/>
<path fill-rule="evenodd" clip-rule="evenodd" d="M38.965 36.61L37.792 35.437C37.206 34.851 36.256 34.851 35.671 35.437L34.749 36.359C34.543 36.565 34.231 36.634 33.965 36.517C32.629 35.932 31.309 35.045 30.132 33.868C28.96 32.696 28.076 31.382 27.49 30.051C27.368 29.776 27.439 29.453 27.652 29.24L28.478 28.414C29.149 27.743 29.149 26.794 28.563 26.208L27.39 25.035C26.609 24.254 25.343 24.254 24.562 25.035L23.91 25.686C23.169 26.427 22.86 27.496 23.06 28.556C23.554 31.169 25.072 34.03 27.521 36.479C29.97 38.928 32.831 40.446 35.444 40.94C36.504 41.14 37.573 40.831 38.314 40.09L38.965 39.439C39.746 38.658 39.746 37.392 38.965 36.61V36.61Z" stroke="white" stroke-width="1.5" stroke-linecap="round" stroke-linejoin="round"/>
<path d="M33 26.991C34.031 26.977 35.067 27.359 35.854 28.146" stroke="white" stroke-width="1.5" stroke-linecap="round" stroke-linejoin="round"/>
<path d="M38.682 25.318C37.113 23.749 35.056 22.964 33 22.964" stroke="white" stroke-width="1.5" stroke-linecap="round" stroke-linejoin="round"/>
<path d="M37.009 31C37.023 29.969 36.641 28.933 35.854 28.146" stroke="white" stroke-width="1.5" stroke-linecap="round" stroke-linejoin="round"/>
<path d="M38.682 25.318C40.251 26.887 41.036 28.944 41.036 31" stroke="white" stroke-width="1.5" stroke-linecap="round" stroke-linejoin="round"/>
</svg>
